# xmcd
#
# Track frame offsets:
#	150
#	9691
#	20063
#	29440
#	42930
#	53858
#	67542
#	75322
#	83178
#	96730
#	106635
#	120019
#	131425
#	143424
#	158604
#	172623
#	186519
#	198134
#	209105
#	221534
#	233148
#	246669
#	258427
#	277898
#
# Disc length: 3867 seconds
#
# Revision: 1
# Processed by: cddbd v1.4PL0 Copyright (c) Steve Scherf et al.
# Submitted via: MusicWizard 6.0.0
#
DISCID=3d0f1918
DTITLE=Glen Campbell - A Satisfied Mind - At The Country Store
DYEAR=2002
DGENRE=Country
TTITLE0=A Satisfied Mind
TTITLE1=Weary Lonesome Blues
TTITLE2=Truck Driving Man
TTITLE3=There's More Pretty Girls Than One
TTITLE4=Raining On The Mountain
TTITLE5=One Hundred Miles Away From Home
TTITLE6=Kentucky Means Paradise
TTITLE7=Lonesome Jailhouse Blues
TTITLE8=Long Black Limousine
TTITLE9=Poor Boy Looking For A Home
TTITLE10=Gentle On My Mind
TTITLE11=Everything A Man Could Ever Need
TTITLE12=Galveston
TTITLE13=God Only Knows
TTITLE14=For Crying Out Loud
TTITLE15=Wichita Lineman
TTITLE16=All I Have To Do Is Dream
TTITLE17=It's Only Make Believe
TTITLE18=Something 'bout You Baby I Like
TTITLE19=Part Time Love
TTITLE20=Southern Nights
TTITLE21=Dreams Of The Everyday Housewilfe
TTITLE22=Amazing Grace
TTITLE23=By The Time I Get To Phoenix
EXTD=Original Capitol Recordings
EXTT0=
EXTT1=
EXTT2=
EXTT3=
EXTT4=
EXTT5=
EXTT6=
EXTT7=
EXTT8=
EXTT9=
EXTT10=
EXTT11=
EXTT12=
EXTT13=
EXTT14=
EXTT15=
EXTT16=
EXTT17=
EXTT18=
EXTT19=
EXTT20=
EXTT21=
EXTT22=
EXTT23=
PLAYORDER=
